<svg width="11" height="11" viewBox="0 0 11 11" fill="none" xmlns="http://www.w3.org/2000/svg">
<path fill-rule="evenodd" clip-rule="evenodd" d="M4.18704 5.78829L2.55802 5.24552C0.852915 4.67739 0 4.39333 0 3.87085C0 3.3491 0.852915 3.06431 2.55802 2.49618L8.72699 0.439616C9.92701 0.0396073 10.527 -0.160397 10.8437 0.156277C11.1604 0.472951 10.9604 1.07296 10.5611 2.27227L8.50379 8.44197C7.93567 10.1471 7.6516 11 7.12913 11C6.60738 11 6.32259 10.1471 5.75446 8.44197L5.21097 6.81367L8.36611 3.65853C8.49811 3.52186 8.57115 3.33881 8.5695 3.14881C8.56785 2.95881 8.49164 2.77705 8.35728 2.6427C8.22293 2.50834 8.04117 2.43213 7.85117 2.43048C7.66117 2.42883 7.47812 2.50187 7.34145 2.63387L4.18704 5.78829Z" fill="#F0F0F0" fill-opacity="0.46"/>
</svg>
