<svg width="24" height="24" viewBox="0 0 24 24" fill="none" xmlns="http://www.w3.org/2000/svg">
<path d="M12 4C11.2519 4 10.6494 4.60087 10.6494 5.35065C10.6494 6.0987 11.2519 6.7013 12 6.7013C12.7481 6.7013 13.3506 6.0987 13.3506 5.35065C13.3506 4.60087 12.7481 4 12 4ZM10.3377 7.08225C9.58961 7.08225 8.98701 7.68485 8.98701 8.4329C8.98701 9.18095 9.58961 9.78355 10.3377 9.78355C11.0857 9.78355 11.6883 9.18095 11.6883 8.4329C11.6883 7.68485 11.0857 7.08225 10.3377 7.08225ZM13.6623 7.08225C12.9143 7.08225 12.3117 7.68485 12.3117 8.4329C12.3117 9.18095 12.9143 9.78355 13.6623 9.78355C14.4104 9.78355 15.013 9.18095 15.013 8.4329C15.013 7.68485 14.4104 7.08225 13.6623 7.08225ZM8.67532 10.1991C7.92727 10.1991 7.32468 10.8017 7.32468 11.5498C7.32468 12.2978 7.92727 12.9004 8.67532 12.9004C9.42338 12.9004 10.026 12.2978 10.026 11.5498C10.026 10.8017 9.42338 10.1991 8.67532 10.1991ZM12 10.1991C11.2519 10.1991 10.6494 10.8017 10.6494 11.5498C10.6494 12.2978 11.2519 12.9004 12 12.9004C12.7481 12.9004 13.3506 12.2978 13.3506 11.5498C13.3506 10.8017 12.7481 10.1991 12 10.1991ZM15.3247 10.1991C14.5766 10.1991 13.974 10.8017 13.974 11.5498C13.974 12.2978 14.5766 12.9004 15.3247 12.9004C16.0727 12.9004 16.6753 12.2978 16.6753 11.5498C16.6753 10.8017 16.0727 10.1991 15.3247 10.1991ZM7.01299 13.2952C6.2632 13.2952 5.66234 13.8978 5.66234 14.6459C5.66234 15.3939 6.2632 15.9965 7.01299 15.9965C7.76104 15.9965 8.36364 15.3939 8.36364 14.6459C8.36364 13.8978 7.76104 13.2952 7.01299 13.2952ZM10.3377 13.2952C9.58961 13.2952 8.98701 13.8978 8.98701 14.6459C8.98701 15.3939 9.58961 15.9965 10.3377 15.9965C11.0857 15.9965 11.6883 15.3939 11.6883 14.6459C11.6883 13.8978 11.0857 13.2952 10.3377 13.2952ZM13.6623 13.2952C12.9143 13.2952 12.3117 13.8978 12.3117 14.6459C12.3117 15.3939 12.9143 15.9965 13.6623 15.9965C14.4104 15.9965 15.013 15.3939 15.013 14.6459C15.013 13.8978 14.4104 13.2952 13.6623 13.2952ZM16.987 13.2952C16.239 13.2952 15.6364 13.8978 15.6364 14.6459C15.6364 15.3939 16.239 15.9965 16.987 15.9965C17.7351 15.9965 18.3377 15.3939 18.3377 14.6459C18.3377 13.8978 17.7351 13.2952 16.987 13.2952ZM5.35065 16.4329C4.60087 16.4329 4 17.0355 4 17.7835C4 18.5316 4.60087 19.1342 5.35065 19.1342C6.10043 19.1342 6.7013 18.5316 6.7013 17.7835C6.7013 17.0355 6.10043 16.4329 5.35065 16.4329ZM8.67532 16.4329C7.92727 16.4329 7.32468 17.0355 7.32468 17.7835C7.32468 18.5316 7.92727 19.1342 8.67532 19.1342C9.42338 19.1342 10.026 18.5316 10.026 17.7835C10.026 17.0355 9.42338 16.4329 8.67532 16.4329ZM12 16.4329C11.2519 16.4329 10.6494 17.0355 10.6494 17.7835C10.6494 18.5316 11.2519 19.1342 12 19.1342C12.7481 19.1342 13.3506 18.5316 13.3506 17.7835C13.3506 17.0355 12.7481 16.4329 12 16.4329ZM15.3247 16.4329C14.5766 16.4329 13.974 17.0355 13.974 17.7835C13.974 18.5316 14.5766 19.1342 15.3247 19.1342C16.0727 19.1342 16.6753 18.5316 16.6753 17.7835C16.6753 17.0355 16.0727 16.4329 15.3247 16.4329ZM18.6494 16.4329C17.9013 16.4329 17.2987 17.0355 17.2987 17.7835C17.2987 18.5316 17.9013 19.1342 18.6494 19.1342C19.3974 19.1342 20 18.5316 20 17.7835C20 17.0355 19.3974 16.4329 18.6494 16.4329Z" fill="#D8D8D8"/>
</svg>
