<svg width="24" height="24" viewBox="0 0 24 24" fill="none" xmlns="http://www.w3.org/2000/svg">
<path d="M11.989 2.09833C11.6995 2.09833 11.4099 2.1632 11.1857 2.29295L4.02536 6.43483C3.57677 6.69433 3.57677 7.10467 4.02536 7.36417L11.1857 11.506C11.6343 11.7655 12.3436 11.7655 12.7922 11.506L19.9525 7.36417C20.4011 7.10472 20.4011 6.69433 19.9525 6.43487L12.7922 2.293C12.5679 2.16316 12.2784 2.09833 11.989 2.09833ZM6.48991 5.97067C6.48994 5.97067 6.48997 5.97067 6.49 5.97067C6.86421 5.98042 7.21868 6.073 7.48352 6.23017C7.76441 6.39685 7.9222 6.62291 7.92219 6.85863C7.92218 7.09434 7.76436 7.32039 7.48346 7.48707C7.20256 7.65374 6.82158 7.74737 6.42434 7.74736C6.02709 7.74735 5.64612 7.65371 5.36524 7.48703C5.15184 7.36039 5.00789 7.19845 4.95226 7.02244C4.89663 6.84642 4.93191 6.66454 5.05348 6.50062C5.17505 6.33671 5.37724 6.19841 5.63356 6.10385C5.88987 6.00929 6.18834 5.96289 6.48986 5.97072L6.48991 5.97067ZM12.0324 5.98216C12.3267 5.98475 12.6132 6.03872 12.8561 6.13735C13.099 6.23598 13.2875 6.37488 13.3981 6.53671C13.5088 6.69854 13.5366 6.87613 13.4782 7.04729C13.4197 7.21846 13.2776 7.37561 13.0695 7.49913C12.9309 7.58291 12.7657 7.64957 12.5834 7.69525C12.4012 7.74093 12.2055 7.76473 12.0076 7.76528C11.8097 7.76582 11.6137 7.7431 11.4307 7.69843C11.2477 7.65375 11.0815 7.588 10.9416 7.50499C10.8016 7.42197 10.6908 7.32333 10.6155 7.21476C10.5402 7.10619 10.5019 6.98984 10.5029 6.87243C10.5038 6.75503 10.5439 6.6389 10.6209 6.53074C10.6978 6.42259 10.8102 6.32456 10.9514 6.24231C11.0931 6.15825 11.2617 6.09192 11.4474 6.04723C11.6331 6.00254 11.832 5.98042 12.0323 5.98216H12.0324ZM17.6416 5.98286C17.6416 5.98286 17.6417 5.98286 17.6417 5.98286C18.0159 5.99259 18.3704 6.08516 18.6352 6.24231C18.9141 6.40924 19.0701 6.63492 19.0692 6.86995C19.0683 7.10498 18.9106 7.33024 18.6305 7.49642C18.3504 7.66261 17.9707 7.75619 17.5746 7.7567C17.1785 7.75721 16.7982 7.66459 16.5169 7.49913C16.3036 7.37248 16.1596 7.21054 16.104 7.03453C16.0484 6.85852 16.0837 6.67665 16.2053 6.51274C16.3269 6.34884 16.529 6.21055 16.7853 6.11599C17.0416 6.02144 17.3401 5.97504 17.6416 5.98286ZM3.54724 8.14877C3.27757 8.1415 3.09424 8.35202 3.09424 8.72439V16.1164C3.09424 16.6345 3.44908 17.249 3.89768 17.5081L10.785 21.4854C11.2336 21.7444 11.5885 21.5395 11.5885 21.0215V13.6294C11.5885 13.1113 11.2336 12.4969 10.785 12.2378L3.89768 8.26056C3.77158 8.18767 3.65275 8.15148 3.54724 8.14867V8.14877ZM20.4585 8.14886C20.353 8.15167 20.2343 8.18777 20.1081 8.26066L13.2205 12.2379C12.772 12.4969 12.4171 13.1115 12.4171 13.6296V21.0218C12.4171 21.5397 12.772 21.7445 13.2205 21.4854L20.1082 17.5083C20.5568 17.2492 20.9115 16.6347 20.9115 16.1167V8.72448C20.9115 8.3522 20.7282 8.14173 20.4585 8.14895V8.14886ZM9.436 12.2079C9.59644 12.1967 9.77869 12.2471 9.96433 12.3538C10.15 12.4606 10.3324 12.6199 10.4932 12.8158C10.6541 13.0116 10.7876 13.237 10.8803 13.4693C10.973 13.7015 11.0216 13.9323 11.0212 14.1383C11.0214 14.2924 10.9942 14.4293 10.9413 14.541C10.8884 14.6528 10.8107 14.7373 10.7127 14.7898C10.6148 14.8422 10.4985 14.8615 10.3704 14.8465C10.2424 14.8316 10.1051 14.7827 9.96652 14.7027C9.82791 14.6226 9.69066 14.513 9.56262 14.3801C9.43458 14.2472 9.31826 14.0936 9.2203 13.9281C9.12235 13.7626 9.04469 13.5884 8.99176 13.4155C8.93884 13.2426 8.91168 13.0744 8.91185 12.9205C8.91146 12.7149 8.95969 12.5408 9.05168 12.4157C9.14368 12.2906 9.27621 12.2189 9.436 12.2079ZM17.1949 13.5516C17.1949 13.5516 17.195 13.5516 17.195 13.5516C17.3548 13.5627 17.4873 13.6344 17.5792 13.7594C17.6712 13.8845 17.7194 14.0586 17.7191 14.2642C17.7187 14.575 17.6075 14.9369 17.4097 15.2705C17.212 15.6042 16.9439 15.8822 16.6644 16.0436C16.3849 16.205 16.1168 16.2365 15.919 16.1312C15.7213 16.0259 15.61 15.7924 15.6097 15.482C15.6093 15.276 15.6579 15.0452 15.7506 14.813C15.8433 14.5808 15.9768 14.3553 16.1377 14.1595C16.2985 13.9636 16.4809 13.8043 16.6666 13.6975C16.8522 13.5908 17.0345 13.5404 17.1949 13.5516ZM4.186 14.9288C4.34645 14.9176 4.5287 14.968 4.71434 15.0747C4.89998 15.1815 5.08243 15.3408 5.24326 15.5367C5.4041 15.7326 5.53761 15.958 5.63031 16.1902C5.72301 16.4224 5.77162 16.6532 5.77122 16.8593C5.77138 17.0134 5.74422 17.1502 5.69129 17.262C5.63836 17.3738 5.5607 17.4583 5.46274 17.5107C5.36479 17.5631 5.24846 17.5824 5.12042 17.5675C4.99238 17.5525 4.85513 17.5036 4.71652 17.4236C4.57791 17.3436 4.44066 17.234 4.31262 17.1011C4.18458 16.9682 4.06826 16.8146 3.9703 16.6491C3.87235 16.4836 3.79469 16.3094 3.74177 16.1365C3.68884 15.9636 3.66168 15.7954 3.66185 15.6415C3.66146 15.4358 3.70968 15.2617 3.80167 15.1366C3.89367 15.0115 4.02621 14.9398 4.186 14.9288Z" fill="white"/>
</svg>
