<svg width="24" height="24" viewBox="0 0 24 24" fill="none" xmlns="http://www.w3.org/2000/svg">
<path d="M2.78868 15.9173C2.91918 16.0147 3.04954 16.112 3.17765 16.2125C5.11826 17.7235 7.92407 18.1036 10.31 18.2565C10.3571 18.2596 10.4043 18.2628 10.4528 18.266C10.9583 18.2976 11.4636 18.2997 11.9699 18.2992C12.0144 18.2992 12.0589 18.2991 12.1048 18.2991C12.8048 18.2982 13.4992 18.2857 14.1966 18.2205C14.2211 18.2182 14.2456 18.2159 14.2708 18.2136C16.0222 18.0494 17.7938 17.738 19.4147 17.0329C19.4547 17.0157 19.4547 17.0157 19.4955 16.9981C19.9931 16.781 20.4633 16.5168 20.8791 16.1651C20.9871 16.0769 21.1 15.9976 21.2141 15.9173C21.2177 16.0702 21.2203 16.2232 21.222 16.3761C21.2227 16.428 21.2237 16.4799 21.2249 16.5318C21.2381 17.0926 21.0767 17.4139 20.6945 17.8201C18.6456 19.817 14.7065 19.9569 12.0306 19.9546C12.0058 19.9546 11.981 19.9546 11.9554 19.9546C11.2249 19.9542 10.4977 19.951 9.77018 19.8759C9.7467 19.8735 9.72322 19.8712 9.69903 19.8687C7.61847 19.6597 4.68514 19.3469 3.17751 17.7025C2.94492 17.411 2.78361 17.1605 2.78517 16.7783C2.78522 16.7537 2.78527 16.7291 2.78532 16.7037C2.78552 16.6253 2.78597 16.5468 2.78643 16.4683C2.78661 16.4151 2.78678 16.3618 2.78692 16.3086C2.78732 16.1782 2.78794 16.0477 2.78868 15.9173Z" fill="#D8D8D8"/>
<path d="M11.0298 5.12122C11.1159 5.14497 11.202 5.16872 11.2907 5.19319C11.8716 5.33676 12.4026 5.2786 12.9731 5.12122C12.9731 5.35873 12.9731 5.59625 12.9731 5.84096C13.0444 5.86471 13.1156 5.88846 13.189 5.91293C13.4219 6.06746 13.5403 6.23011 13.605 6.50092C13.6224 6.60598 13.6253 6.70446 13.6252 6.81096C13.6253 6.87537 13.6253 6.87537 13.6254 6.94109C13.6252 7.01129 13.6252 7.01129 13.625 7.08291C13.625 7.13293 13.625 7.18294 13.625 7.23296C13.625 7.36849 13.6248 7.50402 13.6245 7.63956C13.6243 7.78129 13.6243 7.92302 13.6242 8.06476C13.6241 8.33304 13.6238 8.60132 13.6235 8.8696C13.6231 9.17507 13.6229 9.48055 13.6227 9.78602C13.6223 10.4143 13.6217 11.0426 13.6209 11.6709C13.1354 11.951 12.6451 12.0078 12.0895 12.0061C12.0111 12.006 11.9326 12.0068 11.8541 12.0078C11.3418 12.0101 10.8186 11.9619 10.382 11.6709C10.3685 11.5838 10.3685 11.5838 10.3683 11.472C10.3679 11.4086 10.3679 11.4086 10.3674 11.3439C10.3676 11.2973 10.3678 11.2506 10.3681 11.2026C10.3679 11.1532 10.3677 11.1038 10.3675 11.0544C10.367 10.9198 10.3672 10.7853 10.3675 10.6508C10.3678 10.5099 10.3676 10.369 10.3674 10.2281C10.3672 9.99117 10.3675 9.75423 10.368 9.51728C10.3686 9.24397 10.3684 8.97068 10.3678 8.69737C10.3673 8.46249 10.3672 8.22762 10.3675 7.99274C10.3677 7.85258 10.3677 7.71242 10.3673 7.57225C10.367 7.44016 10.3672 7.30807 10.3679 7.17597C10.3681 7.10487 10.3677 7.03377 10.3674 6.96268C10.3701 6.58908 10.4117 6.28424 10.6756 6.00754C10.78 5.91529 10.8873 5.84096 11.0298 5.84096C11.0298 5.60344 11.0298 5.36593 11.0298 5.12122ZM11.5201 7.47837C11.3984 7.62684 11.3747 7.7611 11.3775 7.9493C11.4023 8.12569 11.4944 8.25627 11.625 8.37397C11.7971 8.49019 11.9799 8.49917 12.1814 8.46802C12.3719 8.40905 12.485 8.28704 12.5816 8.11588C12.6527 7.93678 12.6348 7.77709 12.575 7.59758C12.4653 7.43829 12.3569 7.31034 12.1658 7.25514C11.8968 7.21747 11.704 7.27269 11.5201 7.47837Z" fill="#D8D8D8"/>
<path d="M3.82027 13.5426C3.88166 13.5424 3.94305 13.5421 4.00444 13.5416C4.17098 13.5408 4.33746 13.5417 4.50399 13.5431C4.67913 13.5442 4.85427 13.5438 5.02942 13.5437C5.32417 13.5436 5.61891 13.5447 5.91366 13.5466C6.25227 13.5486 6.59086 13.5491 6.92949 13.5486C7.25696 13.5482 7.58443 13.5488 7.91191 13.5499C8.05031 13.5503 8.18871 13.5505 8.32711 13.5503C9.02736 13.5501 9.69448 13.5557 10.376 13.7387C10.4854 13.7659 10.5941 13.7808 10.706 13.7941C10.706 13.8178 10.706 13.8416 10.706 13.8661C10.6354 13.9191 10.6354 13.9191 10.5357 13.9813C10.4991 14.0045 10.4624 14.0276 10.4246 14.0514C10.3846 14.0764 10.3446 14.1013 10.3034 14.127C10.2195 14.1798 10.1357 14.2329 10.0519 14.286C10.0308 14.2993 10.0096 14.3127 9.98787 14.3264C9.807 14.4409 9.62855 14.5586 9.45092 14.678C9.12942 14.8937 8.80641 15.107 8.48289 15.3197C8.42723 15.3563 8.37159 15.3929 8.31595 15.4295C8.28932 15.447 8.26269 15.4645 8.23525 15.4825C8.20915 15.4997 8.18304 15.5169 8.15615 15.5346C8.10494 15.5682 8.05367 15.6016 8.0023 15.635C7.89188 15.7066 7.78312 15.779 7.67601 15.8557C7.40659 16.0444 7.40659 16.0444 7.23856 16.0273C7.18686 16.0148 7.13556 16.0006 7.08477 15.9848C7.05619 15.9773 7.0276 15.9699 6.99815 15.9622C6.93565 15.9456 6.87336 15.9282 6.81127 15.9102C6.70629 15.8799 6.60084 15.8522 6.49506 15.8248C5.26798 15.5016 3.88923 15.0463 3.04072 14.046C2.99462 13.9452 2.99462 13.9452 2.96875 13.8661C3.16601 13.5082 3.45782 13.5377 3.82027 13.5426Z" fill="#D8D8D8"/>
<path d="M2.78857 14.6578C2.90169 14.708 2.97698 14.7674 3.06522 14.8535C5.40769 16.9537 9.65147 17.1089 13.437 17.0013C15.9322 16.8625 19.1917 16.5182 21.0727 14.7172C21.142 14.6578 21.142 14.6578 21.214 14.6578C21.185 15.1018 20.9052 15.4289 20.5834 15.7139C19.9412 16.2556 19.1247 16.5915 18.335 16.853C18.279 16.8715 18.279 16.8715 18.2218 16.8905C16.8171 17.3469 15.3418 17.567 13.8726 17.6807C13.831 17.6841 13.7894 17.6876 13.7466 17.6911C13.1825 17.7315 12.616 17.7255 12.0508 17.7257C12.0227 17.7257 11.9947 17.7257 11.9658 17.7257C11.0858 17.7262 10.2133 17.7094 9.33822 17.6087C9.2911 17.6035 9.24397 17.5983 9.19542 17.593C7.27989 17.3766 5.00084 16.9972 3.47233 15.7374C3.428 15.7019 3.428 15.7019 3.38278 15.6657C3.10186 15.4306 2.89226 15.1555 2.78857 14.8017C2.78857 14.7542 2.78857 14.7067 2.78857 14.6578Z" fill="#D8D8D8"/>
<path d="M9.80624 11.5989C9.80935 11.6198 9.81246 11.6406 9.81566 11.6621C9.82072 11.6902 9.82577 11.7184 9.83098 11.7473C9.83558 11.7749 9.84017 11.8024 9.8449 11.8308C9.93506 12.0796 10.1205 12.1897 10.3483 12.301C11.271 12.7278 12.5845 12.7062 13.5254 12.3605C13.7527 12.2608 13.9999 12.1464 14.1247 11.9228C14.1558 11.8158 14.1785 11.7088 14.1967 11.5989C14.3865 11.6198 14.5516 11.6634 14.7297 11.7316C14.7548 11.7411 14.7798 11.7506 14.8057 11.7604C15.0536 11.8574 15.3133 11.9709 15.4922 12.1747C15.5237 12.2601 15.5237 12.2601 15.5282 12.3546C15.367 12.6828 14.9938 12.8131 14.6657 12.9254C14.1266 13.0995 13.5729 13.2058 13.0091 13.2543C12.9679 13.2583 12.9267 13.2623 12.8843 13.2664C11.6905 13.3659 10.4003 13.3072 9.26644 12.8944C9.22649 12.8799 9.18655 12.8655 9.1454 12.8506C8.88498 12.7494 8.62562 12.6418 8.48597 12.3883C8.47472 12.2826 8.47472 12.2826 8.50396 12.1927C8.79006 11.8657 9.37553 11.5989 9.80624 11.5989Z" fill="#D8D8D8"/>
<path d="M17.3997 13.5782C17.8364 13.5715 18.2731 13.5664 18.7098 13.5633C18.9126 13.5618 19.1154 13.5597 19.3182 13.5565C19.5139 13.5533 19.7097 13.5516 19.9055 13.5509C19.9801 13.5503 20.0547 13.5493 20.1293 13.5477C20.234 13.5456 20.3386 13.5454 20.4433 13.5455C20.4741 13.5445 20.5048 13.5434 20.5364 13.5424C20.6749 13.5443 20.7522 13.5521 20.8594 13.6445C20.9223 13.7159 20.9799 13.788 21.0344 13.8661C20.9823 14.0368 20.882 14.1459 20.7577 14.2687C20.7267 14.2993 20.7267 14.2993 20.6951 14.3306C20.4701 14.5467 20.2223 14.7148 19.9548 14.8737C19.9143 14.898 19.8738 14.9222 19.8322 14.9472C19.1389 15.3384 17.729 16.0765 16.9169 15.9386C16.8981 15.9316 16.8793 15.9246 16.8599 15.9173C16.8803 15.9025 16.9008 15.8876 16.9219 15.8724C17.2774 15.6064 17.5708 15.2922 17.6516 14.8377C17.6774 14.4346 17.6658 14.0882 17.4487 13.7339C17.3997 13.6502 17.3997 13.6502 17.3997 13.5782Z" fill="#D8D8D8"/>
<path d="M12.2896 13.902C12.4327 13.9593 12.5469 14.0165 12.6771 14.0959C12.7176 14.1205 12.758 14.1451 12.7997 14.1705C12.8433 14.1972 12.887 14.2239 12.9306 14.2507C12.9757 14.2782 13.0209 14.3058 13.066 14.3333C13.4278 14.5543 13.7877 14.7781 14.1464 15.0039C14.269 15.0809 14.3921 15.1569 14.5161 15.2316C14.5426 15.2477 14.5692 15.2638 14.5965 15.2804C14.6442 15.3093 14.692 15.3378 14.7401 15.366C14.8477 15.4316 14.9324 15.4977 15.0108 15.5953C15.2614 15.9054 15.6235 16.0096 15.9962 16.0973C15.8948 16.1987 15.7852 16.1961 15.6484 16.2131C15.6066 16.2186 15.6066 16.2186 15.5638 16.2243C15.4726 16.2363 15.3813 16.2478 15.29 16.2592C15.2272 16.2672 15.1644 16.2753 15.1016 16.2833C14.633 16.3427 14.1645 16.391 13.693 16.4211C13.6632 16.4232 13.6334 16.4252 13.6026 16.4273C13.1643 16.4567 12.7298 16.4571 12.2896 16.4571C12.2896 15.6139 12.2896 14.7708 12.2896 13.902Z" fill="#D8D8D8"/>
<path d="M11.7135 13.902C11.7135 14.7452 11.7135 15.5884 11.7135 16.4571C11.2837 16.4571 10.8615 16.4571 10.4338 16.4301C10.4094 16.4286 10.385 16.4271 10.3599 16.4256C9.94538 16.3998 9.53284 16.36 9.12023 16.3132C9.07994 16.3087 9.07994 16.3087 9.03885 16.3041C8.77467 16.2741 8.51471 16.2438 8.25879 16.1692C8.43027 16.0247 8.61638 15.9038 8.80309 15.7801C8.84039 15.7553 8.87768 15.7305 8.9161 15.705C9.30281 15.4482 9.69107 15.1938 10.0793 14.9394C10.3471 14.7637 10.6142 14.5873 10.8801 14.4088C10.9053 14.3919 10.9305 14.375 10.9565 14.3576C11.0763 14.2772 11.1959 14.1967 11.3154 14.1159C11.3578 14.0874 11.4002 14.0589 11.4427 14.0304C11.4795 14.0055 11.5163 13.9806 11.5543 13.955C11.6416 13.902 11.6416 13.902 11.7135 13.902Z" fill="#D8D8D8"/>
<path d="M9.80606 10.1594C9.80606 10.385 9.80606 10.6106 9.80606 10.8431C9.66835 10.8595 9.66835 10.8595 9.52786 10.8762C5.96266 11.2902 5.96266 11.2902 2.93955 13.0688C2.86055 13.1463 2.86055 13.1463 2.78857 13.1463C2.80407 12.728 3.07319 12.4195 3.36437 12.1387C3.67152 11.874 4.01442 11.6781 4.37201 11.4909C4.39621 11.4779 4.42041 11.4649 4.44535 11.4516C5.97527 10.6395 8.06951 10.1594 9.80606 10.1594Z" fill="#D8D8D8"/>
<path d="M14.1968 10.1594C16.3784 10.3272 19.3224 10.7002 20.8904 12.3906C21.0348 12.5806 21.154 12.7695 21.2143 13.0023C21.2008 13.0878 21.2008 13.0878 21.1783 13.1463C21.1436 13.1169 21.1436 13.1169 21.1081 13.0868C19.9295 12.1032 18.4836 11.6102 17.0038 11.275C16.9693 11.2671 16.9349 11.2593 16.8994 11.2512C16.0096 11.0529 15.1016 10.9476 14.1968 10.8431C14.1968 10.6175 14.1968 10.3918 14.1968 10.1594Z" fill="#D8D8D8"/>
<path d="M15.8159 11.6349C17.0694 11.8014 18.3245 12.1347 19.4731 12.6695C19.5015 12.6826 19.5298 12.6958 19.5591 12.7093C19.5853 12.722 19.6116 12.7346 19.6387 12.7477C19.6616 12.7587 19.6844 12.7696 19.708 12.781C19.7745 12.8225 19.7745 12.8225 19.9184 12.9664C18.5646 12.9664 17.2108 12.9664 15.8159 12.9664C15.8879 12.8225 15.8879 12.8225 15.9621 12.7123C16.0841 12.5273 16.0959 12.3548 16.0678 12.1387C16.0192 12.0115 15.956 11.8965 15.8879 11.7788C15.8637 11.731 15.8397 11.683 15.8159 11.6349Z" fill="#D8D8D8"/>
<path d="M8.187 11.6349C8.14974 11.7112 8.11118 11.7855 8.06864 11.859C7.94856 12.0745 7.89083 12.2519 7.93509 12.4986C7.98157 12.6315 8.03659 12.745 8.13794 12.844C8.187 12.8944 8.187 12.8944 8.187 12.9664C6.83317 12.9664 5.47933 12.9664 4.08447 12.9664C4.19551 12.8554 4.30357 12.7939 4.44209 12.7257C4.46748 12.7132 4.49286 12.7007 4.51901 12.6879C5.5696 12.1798 7.00291 11.6349 8.187 11.6349Z" fill="#D8D8D8"/>
<path d="M16.5874 13.6502C16.8252 13.7898 16.9867 13.9646 17.0732 14.2282C17.1416 14.5074 17.123 14.7555 17.0035 15.0177C16.8342 15.2667 16.6376 15.4399 16.3409 15.5043C16.0145 15.5497 15.7601 15.487 15.4924 15.295C15.2905 15.1237 15.1866 14.9188 15.1548 14.655C15.1477 14.318 15.2187 14.0946 15.4335 13.8346C15.7642 13.5669 16.1858 13.4661 16.5874 13.6502Z" fill="#D8D8D8"/>
<path d="M18.929 7.0524C19.1611 7.2441 19.2847 7.45014 19.3383 7.74599C19.3605 8.03283 19.2844 8.27343 19.1164 8.50482C18.9434 8.7051 18.7404 8.80937 18.4763 8.84121C18.1396 8.84826 17.9135 8.7786 17.6559 8.5602C17.3987 8.25002 17.3624 8.00367 17.3995 7.60429C17.4757 7.34066 17.6354 7.13796 17.8674 6.99251C18.2208 6.8374 18.6011 6.83419 18.929 7.0524Z" fill="#D8D8D8"/>
<path d="M6.22554 7.05242C6.4572 7.24369 6.58602 7.42637 6.6155 7.72802C6.62205 7.96579 6.61597 8.15342 6.49545 8.36004C6.47689 8.39641 6.45833 8.43278 6.43922 8.47025C6.29515 8.64387 6.0971 8.75673 5.88367 8.82788C5.51787 8.85878 5.27859 8.80596 4.97499 8.60745C4.7869 8.41082 4.67359 8.1734 4.65771 7.90008C4.66747 7.57409 4.79171 7.31429 5.02672 7.08925C5.36903 6.81556 5.86554 6.81279 6.22554 7.05242Z" fill="#D8D8D8"/>
<path d="M14.1968 7.53235C15.0637 7.53235 15.9306 7.53235 16.8238 7.53235C16.8238 7.75799 16.8238 7.98363 16.8238 8.2161C15.9569 8.2161 15.09 8.2161 14.1968 8.2161C14.1968 7.99046 14.1968 7.76483 14.1968 7.53235Z" fill="#D8D8D8"/>
<path d="M7.1792 7.53235C8.04613 7.53235 8.91306 7.53235 9.80626 7.53235C9.80626 7.75799 9.80626 7.98363 9.80626 8.2161C8.93933 8.2161 8.0724 8.2161 7.1792 8.2161C7.1792 7.99046 7.1792 7.76483 7.1792 7.53235Z" fill="#D8D8D8"/>
<path d="M12.9101 4.22828C12.9309 4.24981 12.9517 4.27133 12.9731 4.29351C12.9686 4.37448 12.9686 4.37448 12.9371 4.47344C12.6663 4.70462 12.3441 4.70167 12.0059 4.70061C11.9691 4.70119 11.9322 4.70177 11.8942 4.70237C11.5749 4.70257 11.2685 4.66821 11.0298 4.43746C11.0475 4.27402 11.0475 4.27402 11.1282 4.20129C11.5717 3.91986 12.4786 3.93783 12.9101 4.22828Z" fill="#D8D8D8"/>
<path d="M14.6735 13.5759C14.7317 13.5764 14.7317 13.5764 14.791 13.5769C14.8206 13.5773 14.8501 13.5777 14.8805 13.5782C14.8661 13.6061 14.8518 13.634 14.837 13.6628C14.6921 13.9583 14.6121 14.2247 14.5566 14.5498C14.3479 14.4946 14.1846 14.387 14.0055 14.2709C13.9766 14.2525 13.9477 14.234 13.9179 14.215C13.8306 14.1591 13.7437 14.1027 13.6569 14.046C13.6259 14.0259 13.5949 14.0058 13.5629 13.9851C13.5333 13.9657 13.5037 13.9462 13.4732 13.9262C13.4328 13.8998 13.4328 13.8998 13.3916 13.8729C13.3723 13.8588 13.3529 13.8447 13.333 13.8301C13.333 13.8182 13.333 13.8063 13.333 13.7941C13.3617 13.7888 13.3904 13.7836 13.4199 13.7782C13.5499 13.7543 13.6799 13.7303 13.8098 13.7064C13.8775 13.694 13.8775 13.694 13.9466 13.6813C14.0117 13.6693 14.0117 13.6693 14.0781 13.657C14.118 13.6497 14.158 13.6423 14.1991 13.6348C14.2611 13.6227 14.3229 13.6095 14.384 13.5937C14.4807 13.5705 14.5744 13.5749 14.6735 13.5759Z" fill="#D8D8D8"/>
</svg>
