<svg width="24" height="24" viewBox="0 0 24 24" fill="none" xmlns="http://www.w3.org/2000/svg">
<path d="M12 5C7.031 5 2 6.546 2 9.5C2 12.454 7.031 14 12 14C16.969 14 22 12.454 22 9.5C22 6.546 16.97 5 12 5ZM7 14.938V17.938C8.237 18.237 9.605 18.42 11 18.479V15.479C9.65239 15.4275 8.31287 15.2464 7 14.938ZM13 15.478V18.478C14.3476 18.4265 15.6871 18.2454 17 17.937V14.937C15.6871 15.2454 14.3476 15.4265 13 15.478ZM19 14.297V17.297C20.801 16.542 22 15.44 22 14V11C22 12.44 20.801 13.542 19 14.297ZM5 17.297V14.297C3.2 13.542 2 12.439 2 11V14C2 15.439 3.2 16.542 5 17.297Z" fill="#D8D8D8"/>
</svg>
