<svg width="32" height="21" viewBox="0 0 32 21" fill="none" xmlns="http://www.w3.org/2000/svg">
<path d="M11.7095 4.20001C12.3815 4.20001 13.0087 4.29521 13.5911 4.48561C14.1847 4.67601 14.7055 4.94481 15.1535 5.29201C15.6127 5.62801 15.9879 6.02561 16.2791 6.48481C16.5703 6.94401 16.7663 7.44241 16.8671 7.98001C16.9231 8.19281 16.9287 8.33281 16.8839 8.40001C16.8503 8.45601 16.7775 8.48961 16.6655 8.50081L14.0447 8.68561C13.9327 8.68561 13.8599 8.66321 13.8263 8.61841C13.8039 8.56241 13.7815 8.48401 13.7591 8.38321C13.6583 7.84561 13.4567 7.40321 13.1543 7.05601C12.8519 6.70881 12.3983 6.53521 11.7935 6.53521C11.0655 6.53521 10.4887 6.84321 10.0631 7.45921C9.63748 8.06401 9.42468 9.08321 9.42468 10.5168C9.42468 11.9616 9.62068 12.992 10.0127 13.608C10.4159 14.224 11.0095 14.532 11.7935 14.532C12.3983 14.532 12.9247 14.3808 13.3727 14.0784C13.8319 13.7648 14.2071 13.2328 14.4983 12.4824C14.5543 12.3592 14.6943 12.32 14.9183 12.3648L16.8167 12.7344C16.8615 12.7456 16.9119 12.7848 16.9679 12.852C17.0351 12.908 17.0519 13.0368 17.0183 13.2384C16.9735 13.44 16.8727 13.6976 16.7159 14.0112C16.5703 14.3248 16.3631 14.6552 16.0943 15.0024C15.8255 15.3496 15.4839 15.6744 15.0695 15.9768C14.6551 16.2792 14.1679 16.5256 13.6079 16.716C13.0479 16.9064 12.4095 17.0016 11.6927 17.0016C10.5055 17.0016 9.47508 16.7272 8.60148 16.1784C7.72788 15.6184 7.05588 14.8456 6.58548 13.86C6.11508 12.8744 5.87988 11.7432 5.87988 10.4664C5.87988 9.18961 6.11508 8.08641 6.58548 7.15681C7.05588 6.21601 7.72788 5.48801 8.60148 4.97281C9.48628 4.45761 10.5223 4.20001 11.7095 4.20001Z" fill="white"/>
<path d="M20.5322 17.4215C21.2133 17.4215 21.8641 17.3456 22.4824 17.191L22.4814 17.1901C23.1081 17.0362 23.6733 16.8159 24.1719 16.524H24.1709C24.6157 16.2695 24.9898 15.9712 25.2832 15.6246L25.4043 15.4733L25.4199 15.4518L25.4326 15.4293C25.4924 15.3247 25.5406 15.2153 25.5732 15.1012H25.5703C25.6132 14.97 25.6098 14.8315 25.5547 14.7028C25.4994 14.5737 25.4069 14.4814 25.3262 14.4186L25.3203 14.4147L25.3145 14.4098L23.668 13.2174L23.667 13.2194C23.5362 13.1178 23.3596 13.0412 23.1514 13.0758L23.1064 13.0836L23.0645 13.1002C22.9793 13.1343 22.9057 13.1875 22.8525 13.2301C22.7944 13.2767 22.7331 13.3329 22.6709 13.3951L22.6641 13.402L22.6572 13.4098C22.4653 13.6209 22.2188 13.8195 21.9121 14.0035L21.9062 14.0074C21.6812 14.1469 21.2779 14.2467 20.6328 14.2467C20.0019 14.2467 19.6317 14.1358 19.4385 13.9928L19.4297 13.9869C19.2057 13.8293 19.1544 13.6927 19.1543 13.5748C19.1543 13.5312 19.1664 13.4693 19.207 13.3854C19.2347 13.3367 19.2975 13.2601 19.4287 13.1627C19.519 13.1012 19.6516 13.0378 19.8369 12.9801L20.043 12.9244L20.0547 12.9215L22.7754 12.1823H22.7744C23.885 11.8868 24.7473 11.3882 25.3027 10.652C25.8421 9.93691 26.1094 9.10756 26.1094 8.18127C26.1093 7.29669 25.8744 6.50479 25.3945 5.82288L25.3936 5.82385C24.927 5.15618 24.267 4.65078 23.4336 4.30042C22.5969 3.94878 21.614 3.77991 20.498 3.77991C19.6713 3.77994 18.8858 3.87364 18.1436 4.06213H18.1426C17.4144 4.25005 16.7595 4.51639 16.1826 4.86487L16.1729 4.87073V4.8717C15.6026 5.23581 15.1547 5.6718 14.8467 6.18518C14.769 6.31472 14.6709 6.51627 14.708 6.73889H14.71C14.7478 6.97565 14.9124 7.14365 15.0449 7.24963L15.0566 7.2594L15.0693 7.26721L16.5811 8.3092C16.7327 8.41404 16.9626 8.5374 17.2178 8.49768L17.2188 8.49866C17.4264 8.47553 17.6112 8.37569 17.7402 8.20178L17.9219 7.9762C18.0986 7.76689 18.2714 7.59356 18.4395 7.45374L18.6064 7.33459C18.7763 7.22536 18.963 7.13919 19.167 7.07483C19.4575 6.99794 19.8151 6.95474 20.2461 6.95471C20.8823 6.95471 21.35 7.04695 21.6758 7.19983C21.8264 7.27589 21.915 7.35552 21.9658 7.4303C22.015 7.50264 22.0439 7.59156 22.0439 7.71155C22.0439 7.78256 22.0253 7.84729 21.9805 7.91467L21.9697 7.93127L21.96 7.94885C21.9245 8.01473 21.8549 8.09448 21.7207 8.17834L21.71 8.18518C21.5962 8.2609 21.4106 8.34143 21.1318 8.4137H21.1309L18.5771 9.08557L18.5742 9.08655C17.8692 9.27773 17.2522 9.56844 16.7324 9.96448C16.2826 10.3073 15.9163 10.7064 15.6387 11.1617L15.5215 11.3668C15.2437 11.9097 15.1055 12.4967 15.1055 13.1207C15.1055 13.9217 15.3329 14.6548 15.7852 15.3082L15.7861 15.3102L15.9678 15.5514C16.4121 16.0993 16.994 16.5347 17.7012 16.8619C18.5182 17.2399 19.466 17.4215 20.5322 17.4215Z" fill="#4590E9" stroke="#04081F" stroke-width="0.84"/>
<path fill-rule="evenodd" clip-rule="evenodd" d="M18.8605 0C18.6693 0.291842 18.5581 0.640841 18.5581 1.01581V1.50419C18.5581 1.56348 18.5609 1.62213 18.5663 1.68H10.08C5.44081 1.68 1.68 5.44081 1.68 10.08V10.92C1.68 15.5592 5.44081 19.32 10.08 19.32H21.84C26.4792 19.32 30.24 15.5592 30.24 10.92V10.08C30.24 5.58182 26.7043 1.90943 22.2605 1.69034C22.2666 1.62912 22.2697 1.56702 22.2697 1.50419V1.01581C22.2697 0.64118 22.1587 0.292474 21.9678 0.000793598C27.4759 0.0692333 31.92 4.55563 31.92 10.08V10.92C31.92 16.487 27.407 21 21.84 21H10.08C4.51298 21 0 16.487 0 10.92V10.08C0 4.51297 4.51297 0 10.08 0H18.8605Z" fill="#4590E9"/>
<rect x="19.3198" width="2.52" height="1.68" rx="0.84" fill="white"/>
</svg>
