<svg width="24" height="24" viewBox="0 0 24 24" fill="none" xmlns="http://www.w3.org/2000/svg">
<path d="M12.9257 3C13.9382 3.0027 14.4521 3.0081 14.8958 3.0207L15.0704 3.027C15.272 3.0342 15.4709 3.0432 15.7112 3.054C16.6688 3.099 17.3223 3.2502 17.8956 3.4725C18.4896 3.7011 18.99 4.0107 19.4904 4.5102C19.9482 4.95996 20.3023 5.50423 20.5281 6.10501C20.7504 6.67831 20.9016 7.33171 20.9466 8.29021C20.9574 8.52961 20.9664 8.72852 20.9736 8.93102L20.979 9.10562C20.9925 9.54842 20.9979 10.0623 20.9997 11.0748L21.0006 11.7462V12.9252C21.0028 13.5817 20.9959 14.2382 20.9799 14.8944L20.9745 15.069C20.9673 15.2715 20.9583 15.4704 20.9475 15.7098C20.9025 16.6683 20.7495 17.3208 20.5281 17.895C20.3023 18.4958 19.9482 19.0401 19.4904 19.4898C19.0406 19.9477 18.4963 20.3018 17.8956 20.5275C17.3223 20.7498 16.6688 20.901 15.7112 20.946L15.0704 20.973L14.8958 20.9784C14.4521 20.991 13.9382 20.9973 12.9257 20.9991L12.2543 21H11.0762C10.4195 21.0024 9.7627 20.9955 9.10613 20.9793L8.93153 20.9739C8.71788 20.9659 8.50427 20.9566 8.29073 20.946C7.33312 20.901 6.67972 20.7498 6.10552 20.5275C5.50507 20.3017 4.96112 19.9476 4.51162 19.4898C4.05347 19.0402 3.69901 18.4959 3.47301 17.895C3.25071 17.3217 3.09951 16.6683 3.05451 15.7098L3.02751 15.069L3.02301 14.8944C3.00642 14.2382 2.99892 13.5817 3.00051 12.9252V11.0748C2.99802 10.4184 3.00462 9.7619 3.02031 9.10562L3.02661 8.93102C3.03381 8.72852 3.04281 8.52961 3.05361 8.29021C3.09861 7.33171 3.24981 6.67921 3.47211 6.10501C3.69864 5.50399 4.05372 4.9597 4.51252 4.5102C4.96176 4.0526 5.50539 3.69847 6.10552 3.4725C6.67972 3.2502 7.33222 3.099 8.29073 3.054C8.53013 3.0432 8.72993 3.0342 8.93153 3.027L9.10613 3.0216C9.7624 3.00561 10.4189 2.99871 11.0753 3.0009L12.9257 3ZM12.0005 7.50001C10.8071 7.50001 9.66246 7.97412 8.81855 8.81804C7.97463 9.66195 7.50052 10.8065 7.50052 12C7.50052 13.1935 7.97463 14.3381 8.81855 15.182C9.66246 16.0259 10.8071 16.5 12.0005 16.5C13.194 16.5 14.3386 16.0259 15.1825 15.182C16.0264 14.3381 16.5005 13.1935 16.5005 12C16.5005 10.8065 16.0264 9.66195 15.1825 8.81804C14.3386 7.97412 13.194 7.50001 12.0005 7.50001ZM12.0005 9.30002C12.3551 9.29996 12.7062 9.36974 13.0338 9.50537C13.3614 9.641 13.6591 9.83984 13.9099 10.0905C14.1606 10.3412 14.3596 10.6388 14.4953 10.9664C14.631 11.2939 14.7009 11.645 14.701 11.9996C14.7011 12.3541 14.6313 12.7053 14.4956 13.0329C14.36 13.3605 14.1612 13.6581 13.9105 13.9089C13.6598 14.1597 13.3622 14.3586 13.0347 14.4943C12.7071 14.6301 12.356 14.7 12.0014 14.7C11.2853 14.7 10.5986 14.4156 10.0922 13.9092C9.58589 13.4029 9.30143 12.7161 9.30143 12C9.30143 11.2839 9.58589 10.5972 10.0922 10.0908C10.5986 9.58448 11.2853 9.30002 12.0014 9.30002M16.7264 6.15001C16.4281 6.15001 16.1419 6.26854 15.931 6.47951C15.72 6.69049 15.6014 6.97664 15.6014 7.27501C15.6014 7.57338 15.72 7.85953 15.931 8.07051C16.1419 8.28149 16.4281 8.40001 16.7264 8.40001C17.0248 8.40001 17.311 8.28149 17.5219 8.07051C17.7329 7.85953 17.8515 7.57338 17.8515 7.27501C17.8515 6.97664 17.7329 6.69049 17.5219 6.47951C17.311 6.26854 17.0248 6.15001 16.7264 6.15001Z" fill="#878787"/>
</svg>
