<svg width="24" height="24" viewBox="0 0 24 24" fill="none" xmlns="http://www.w3.org/2000/svg">
<path d="M8.3999 4.8H5.6999C4.82469 4.8 3.98532 5.14768 3.36645 5.76655C2.74758 6.38542 2.3999 7.22479 2.3999 8.1V10.8H5.1215C4.85739 10.3425 4.75162 9.81057 4.82059 9.2868C4.88956 8.76303 5.12943 8.27665 5.50299 7.90309C5.87655 7.52953 6.36293 7.28966 6.8867 7.22069C7.41047 7.15172 7.94237 7.25749 8.3999 7.5216V4.8ZM9.5999 9.6V10.8H10.7999C11.0372 10.8 11.2692 10.7296 11.4666 10.5978C11.6639 10.4659 11.8177 10.2785 11.9086 10.0592C11.9994 9.83995 12.0231 9.59867 11.9768 9.36589C11.9305 9.13312 11.8163 8.9193 11.6484 8.75147C11.4806 8.58365 11.2668 8.46936 11.034 8.42306C10.8012 8.37676 10.56 8.40052 10.3407 8.49135C10.1214 8.58217 9.934 8.73598 9.80214 8.93332C9.67028 9.13066 9.5999 9.36267 9.5999 9.6ZM12.8783 10.8C13.1424 10.3425 13.2482 9.81057 13.1792 9.2868C13.1102 8.76303 12.8704 8.27665 12.4968 7.90309C12.1233 7.52953 11.6369 7.28966 11.1131 7.22069C10.5893 7.15172 10.0574 7.25749 9.5999 7.5216V4.8H18.2999C19.1751 4.8 20.0145 5.14768 20.6334 5.76655C21.2522 6.38542 21.5999 7.22479 21.5999 8.1V10.8H12.8783ZM10.4483 12L12.4247 13.9752C12.5374 14.0879 12.6007 14.2407 12.6007 14.4C12.6007 14.5593 12.5374 14.7121 12.4247 14.8248C12.312 14.9375 12.1592 15.0008 11.9999 15.0008C11.8406 15.0008 11.6878 14.9375 11.5751 14.8248L9.5999 12.8484V19.2H18.2999C19.1751 19.2 20.0145 18.8523 20.6334 18.2335C21.2522 17.6146 21.5999 16.7752 21.5999 15.9V12H10.4483ZM8.3999 19.2V12.8484L6.4247 14.8248C6.31204 14.9375 6.15923 15.0008 5.9999 15.0008C5.84057 15.0008 5.68777 14.9375 5.5751 14.8248C5.46244 14.7121 5.39914 14.5593 5.39914 14.4C5.39914 14.2407 5.46244 14.0879 5.5751 13.9752L7.5515 12H2.3999V15.9C2.3999 16.7752 2.74758 17.6146 3.36645 18.2335C3.98532 18.8523 4.82469 19.2 5.6999 19.2H8.3999ZM8.3999 9.6C8.3999 9.36267 8.32952 9.13066 8.19767 8.93332C8.06581 8.73598 7.87839 8.58217 7.65912 8.49135C7.43985 8.40052 7.19857 8.37676 6.96579 8.42306C6.73302 8.46936 6.5192 8.58365 6.35137 8.75147C6.18355 8.9193 6.06926 9.13312 6.02296 9.36589C5.97666 9.59867 6.00042 9.83995 6.09125 10.0592C6.18207 10.2785 6.33588 10.4659 6.53322 10.5978C6.73056 10.7296 6.96256 10.8 7.1999 10.8H8.3999V9.6Z" fill="#D8D8D8"/>
</svg>
