<svg width="24" height="24" viewBox="0 0 24 24" fill="none" xmlns="http://www.w3.org/2000/svg">
<path d="M17.1854 18.9992H15.7631C15.5974 19.0022 15.4329 18.9717 15.2799 18.9098C14.7863 18.6951 14.5359 18.412 14.4183 18.2339C14.3866 18.1843 14.3711 18.1265 14.374 18.0682C14.3768 18.0098 14.3979 17.9537 14.4343 17.9073C15.0063 17.1389 16.3327 16.6746 17.1862 16.6746M17.1878 19H18.611C18.7758 19 18.9414 18.9759 19.0934 18.9098C19.5877 18.6951 19.8381 18.412 19.9549 18.2339C19.9868 18.1844 20.0024 18.1267 19.9997 18.0683C19.997 18.01 19.9761 17.9538 19.9397 17.9073C19.3678 17.1389 18.0406 16.6746 17.1878 16.6746M6.81217 11.6045H5.38902C5.22422 11.6045 5.05863 11.5812 4.90663 11.5151C4.41225 11.3004 4.16186 11.0173 4.04506 10.84C4.0132 10.7905 3.99759 10.7327 4.0003 10.6744C4.00302 10.616 4.02393 10.5599 4.06026 10.5134C4.63224 9.74418 5.9594 9.27987 6.81217 9.27987M6.81457 11.6053H8.23692C8.40252 11.6053 8.56811 11.582 8.72011 11.5151C9.21369 11.3004 9.46408 11.0173 9.58168 10.84C9.61343 10.7904 9.6289 10.7326 9.62605 10.6743C9.62319 10.6159 9.60213 10.5598 9.56568 10.5134C8.9937 9.74418 7.66734 9.27987 6.81377 9.27987M11.5896 5.77773C13.8399 5.77773 15.7599 5.77773 16.4591 6.46136C17.1582 7.14499 17.1582 7.85584 17.1582 10.0568L15.5671 9.2791M11.9872 18.2262C9.73687 18.2262 7.81694 18.2262 7.11776 17.5417C6.41858 16.8589 6.41858 16.1473 6.41858 13.9471L8.00973 14.7248M6.81617 5C6.15699 5 5.62261 5.52264 5.62261 6.1666C5.62261 6.81212 6.15699 7.33398 6.81617 7.33398C7.47535 7.33398 8.00973 6.81134 8.00973 6.16738C8.00973 5.52108 7.47535 5 6.81617 5ZM17.1582 12.3908C16.4991 12.3908 15.9647 12.9134 15.9647 13.5574C15.9647 14.2029 16.4991 14.724 17.1582 14.724C17.8174 14.724 18.351 14.2029 18.351 13.5574C18.351 12.9134 17.8174 12.3908 17.1582 12.3908Z" stroke="#D8D8D8" stroke-linecap="round" stroke-linejoin="round"/>
</svg>
