<svg width="24" height="24" viewBox="0 0 24 24" fill="none" xmlns="http://www.w3.org/2000/svg">
<path d="M12 7C12.6962 7 13.3639 7.27974 13.8562 7.77768C14.3484 8.27562 14.625 8.95098 14.625 9.65517C14.625 10.3594 14.3484 11.0347 13.8562 11.5327C13.3639 12.0306 12.6962 12.3103 12 12.3103C11.3038 12.3103 10.6361 12.0306 10.1438 11.5327C9.65156 11.0347 9.375 10.3594 9.375 9.65517C9.375 8.95098 9.65156 8.27562 10.1438 7.77768C10.6361 7.27974 11.3038 7 12 7ZM6.75 8.89655C7.17 8.89655 7.56 9.01034 7.8975 9.21517C7.785 10.3 8.1 11.3772 8.745 12.2193C8.37 12.9476 7.62 13.4483 6.75 13.4483C6.15326 13.4483 5.58097 13.2085 5.15901 12.7817C4.73705 12.3549 4.5 11.776 4.5 11.1724C4.5 10.5688 4.73705 9.98994 5.15901 9.56314C5.58097 9.13633 6.15326 8.89655 6.75 8.89655ZM17.25 8.89655C17.8467 8.89655 18.419 9.13633 18.841 9.56314C19.2629 9.98994 19.5 10.5688 19.5 11.1724C19.5 11.776 19.2629 12.3549 18.841 12.7817C18.419 13.2085 17.8467 13.4483 17.25 13.4483C16.38 13.4483 15.63 12.9476 15.255 12.2193C15.9086 11.3653 16.2121 10.2895 16.1025 9.21517C16.44 9.01034 16.83 8.89655 17.25 8.89655ZM7.125 16.6724C7.125 15.1021 9.3075 13.8276 12 13.8276C14.6925 13.8276 16.875 15.1021 16.875 16.6724V18H7.125V16.6724ZM3 18V16.8621C3 15.8076 4.4175 14.92 6.3375 14.6621C5.895 15.1779 5.625 15.891 5.625 16.6724V18H3ZM21 18H18.375V16.6724C18.375 15.891 18.105 15.1779 17.6625 14.6621C19.5825 14.92 21 15.8076 21 16.8621V18Z" fill="#D8D8D8"/>
</svg>
