<svg width="24" height="24" viewBox="0 0 24 24" fill="none" xmlns="http://www.w3.org/2000/svg">
<path d="M15.8673 17.8311C17.233 16.9264 18.2379 15.571 18.707 14.0011C19.1761 12.4313 19.0796 10.7465 18.4343 9.24047C17.789 7.73447 16.6359 6.50278 15.1759 5.76009C13.7159 5.01739 12.0416 4.81082 10.445 5.17636M15.8673 17.8311V15.11M15.8673 17.8311H18.6053M8.1135 6.18162C6.7526 7.08962 5.75287 8.44607 5.28817 10.0151C4.82347 11.5841 4.92319 13.2664 5.56999 14.7695C6.21679 16.2726 7.36975 17.5013 8.82839 18.2421C10.287 18.9828 11.959 19.1887 13.5537 18.8239M8.1135 6.18162V8.8903M8.1135 6.18162H5.3934" stroke="#D8D8D8" stroke-linecap="round" stroke-linejoin="round"/>
</svg>
