<svg width="22" height="22" viewBox="0 0 22 22" fill="none" xmlns="http://www.w3.org/2000/svg">
<path opacity="0.5" d="M18.1667 9.86667H3.5V16.4667C3.5 17.0501 3.73179 17.6097 4.14437 18.0223C4.55695 18.4349 5.11652 18.6667 5.7 18.6667H15.9667C16.5501 18.6667 17.1097 18.4349 17.5223 18.0223C17.9349 17.6097 18.1667 17.0501 18.1667 16.4667V9.86667ZM7.16667 8.4C6.97217 8.4 6.78565 8.32274 6.64812 8.18521C6.5106 8.04769 6.43333 7.86116 6.43333 7.66667V4.73333C6.43333 4.53884 6.5106 4.35232 6.64812 4.21479C6.78565 4.07726 6.97217 4 7.16667 4C7.36116 4 7.54769 4.07726 7.68521 4.21479C7.82274 4.35232 7.9 4.53884 7.9 4.73333V7.66667C7.9 7.86116 7.82274 8.04769 7.68521 8.18521C7.54769 8.32274 7.36116 8.4 7.16667 8.4ZM14.5 8.4C14.3055 8.4 14.119 8.32274 13.9815 8.18521C13.8439 8.04769 13.7667 7.86116 13.7667 7.66667V4.73333C13.7667 4.53884 13.8439 4.35232 13.9815 4.21479C14.119 4.07726 14.3055 4 14.5 4C14.6945 4 14.881 4.07726 15.0185 4.21479C15.1561 4.35232 15.2333 4.53884 15.2333 4.73333V7.66667C15.2333 7.86116 15.1561 8.04769 15.0185 8.18521C14.881 8.32274 14.6945 8.4 14.5 8.4Z" fill="white"/>
<path d="M15.9667 5.46667H15.2333V7.66667C15.2333 7.86117 15.1561 8.04769 15.0185 8.18522C14.881 8.32275 14.6945 8.40001 14.5 8.40001C14.3055 8.40001 14.119 8.32275 13.9815 8.18522C13.8439 8.04769 13.7667 7.86117 13.7667 7.66667V5.46667H7.9V7.66667C7.9 7.86117 7.82274 8.04769 7.68521 8.18522C7.54769 8.32275 7.36116 8.40001 7.16667 8.40001C6.97217 8.40001 6.78565 8.32275 6.64812 8.18522C6.5106 8.04769 6.43333 7.86117 6.43333 7.66667V5.46667H5.7C5.11652 5.46667 4.55695 5.69846 4.14437 6.11104C3.73179 6.52362 3.5 7.0832 3.5 7.66667V9.86667H18.1667V7.66667C18.1667 7.0832 17.9349 6.52362 17.5223 6.11104C17.1097 5.69846 16.5501 5.46667 15.9667 5.46667Z" fill="white"/>
</svg>
