<svg width="20" height="20" viewBox="0 0 20 20" fill="none" xmlns="http://www.w3.org/2000/svg">
<path d="M15.5809 5.80673H15.6276C15.9911 5.80683 16.3495 5.89164 16.6745 6.05444C16.9995 6.21723 17.282 6.45354 17.4997 6.74459C17.7174 7.03565 17.8643 7.37344 17.9286 7.73115C17.993 8.08887 17.9731 8.45667 17.8705 8.80535C17.7679 9.15404 17.5855 9.47401 17.3376 9.73987C17.0898 10.0057 16.7834 10.2102 16.4428 10.3369C16.1021 10.4637 15.7366 10.5094 15.3753 10.4702C15.0139 10.4311 14.6667 10.3083 14.3611 10.1115L14.7811 11.8458C14.8227 12.0178 14.8248 12.197 14.7871 12.3699C14.7494 12.5428 14.6729 12.7048 14.5635 12.8439C14.4541 12.983 14.3145 13.0954 14.1553 13.1727C13.9962 13.2499 13.8215 13.2901 13.6446 13.2901H12.9308C12.7539 13.29 12.5792 13.2497 12.4201 13.1723C12.2609 13.0949 12.1214 12.9824 12.0121 12.8432C11.9027 12.7041 11.8264 12.5419 11.7888 12.369C11.7513 12.196 11.7535 12.0168 11.7952 11.8449L12.2162 10.1115C11.8216 10.3655 11.3598 10.4949 10.8907 10.4829C10.7878 10.0866 10.5578 9.73499 10.2359 9.482C10.3995 9.0553 10.4835 8.60225 10.4838 8.14528C10.4838 7.38011 10.2537 6.66919 9.85985 6.07614C10.2104 5.89134 10.6021 5.79864 10.9983 5.80673C10.9353 5.49811 10.9353 5.17994 10.9983 4.87132C11.1223 4.2635 11.4827 3.72985 12.0002 3.38777C12.5177 3.04569 13.1499 2.9232 13.7577 3.04725C14.3656 3.17129 14.8992 3.53171 15.2413 4.04921C15.5834 4.56672 15.7049 5.19892 15.5809 5.80673ZM6.7421 5.33902C6.20038 5.33904 5.67024 5.49584 5.21568 5.79052C4.76111 6.08519 4.40155 6.50514 4.1804 6.99966C3.95925 7.49419 3.88596 8.04215 3.96938 8.57741C4.0528 9.11267 4.28936 9.61234 4.6505 10.0161H4.40355C4.15546 10.0161 3.91754 10.1147 3.74211 10.2901C3.56669 10.4655 3.46813 10.7035 3.46813 10.9515C3.46813 11.1996 3.56669 11.4376 3.74211 11.613C3.91754 11.7884 4.15546 11.887 4.40355 11.887H4.88997C4.54199 13.5688 3.62435 14.5398 3.11267 14.9673C2.78902 15.2386 2.53271 15.6558 2.53271 16.1422C2.53271 16.8915 3.14074 17.4995 3.89001 17.4995H9.59513C10.3435 17.4995 10.9515 16.8915 10.9515 16.1422C10.9515 15.6558 10.6952 15.2386 10.3715 14.9673C9.85985 14.5398 8.94221 13.5688 8.59423 11.887H9.08065C9.32874 11.887 9.56666 11.7884 9.74209 11.613C9.91751 11.4376 10.0161 11.1996 10.0161 10.9515C10.0161 10.7035 9.91751 10.4655 9.74209 10.2901C9.56666 10.1147 9.32874 10.0161 9.08065 10.0161H8.8337C9.19485 9.61234 9.43141 9.11267 9.51482 8.57741C9.59824 8.04215 9.52495 7.49419 9.3038 6.99966C9.08265 6.50514 8.72309 6.08519 8.26853 5.79052C7.81396 5.49584 7.28382 5.33904 6.7421 5.33902Z" fill="#D8D8D8"/>
<path d="M6.7417 5.57324C7.23814 5.57325 7.7245 5.71635 8.14111 5.98633C8.5577 6.25638 8.8876 6.64156 9.09033 7.09473C9.293 7.54793 9.36007 8.05048 9.28369 8.54102C9.20723 9.03164 8.99069 9.49024 8.65967 9.86035L8.31104 10.25H9.08057C9.26653 10.25 9.44511 10.3236 9.57666 10.4551C9.70814 10.5866 9.78164 10.7652 9.78174 10.9512C9.78174 11.1372 9.70814 11.3157 9.57666 11.4473C9.44509 11.5788 9.26663 11.6533 9.08057 11.6533H8.30713L8.36475 11.9346C8.72632 13.682 9.68183 14.6958 10.2212 15.1465C10.5049 15.3842 10.7173 15.7407 10.7173 16.1426C10.7171 16.7626 10.2141 17.2656 9.59521 17.2656H3.89014C3.27015 17.2656 2.76633 16.7625 2.76611 16.1426C2.76611 15.7407 2.97952 15.3842 3.26318 15.1465L3.26221 15.1455C3.80155 14.6948 4.75706 13.6819 5.11865 11.9346L5.17725 11.6533H4.40381C4.21774 11.6533 4.03928 11.5788 3.90771 11.4473C3.77618 11.3157 3.70166 11.1372 3.70166 10.9512C3.70176 10.7652 3.77623 10.5866 3.90771 10.4551C4.03925 10.3237 4.21789 10.25 4.40381 10.25H5.17334L4.82471 9.86035C4.49366 9.49022 4.27715 9.03167 4.20068 8.54102C4.1243 8.05047 4.19137 7.54794 4.39404 7.09473C4.59678 6.64158 4.9267 6.25637 5.34326 5.98633C5.75973 5.71648 6.24545 5.57333 6.7417 5.57324ZM12.1294 3.58301C12.5951 3.27517 13.1644 3.16473 13.7114 3.27637C14.2582 3.38807 14.7386 3.71221 15.0464 4.17773C15.3541 4.64321 15.4637 5.21255 15.3521 5.75977L15.2944 6.04102H15.6274C15.9546 6.0411 16.2774 6.11715 16.5698 6.26367C16.8622 6.41016 17.1161 6.62291 17.312 6.88477C17.5079 7.1467 17.6408 7.45054 17.6987 7.77246C17.7567 8.09439 17.7383 8.42545 17.646 8.73926C17.5537 9.05301 17.3895 9.34083 17.1665 9.58008C16.9435 9.81935 16.6674 10.0041 16.3608 10.1182C16.0545 10.2321 15.7258 10.2724 15.4009 10.2373C15.0757 10.2021 14.7628 10.0921 14.4878 9.91504L13.9966 9.59863L14.1343 10.167L14.5542 11.9004C14.5875 12.038 14.5883 12.182 14.5581 12.3203C14.5279 12.4585 14.4669 12.5881 14.3794 12.6992C14.2919 12.8104 14.1804 12.9001 14.0532 12.9619C13.926 13.0237 13.7864 13.0566 13.645 13.0566H12.9312C12.7896 13.0566 12.6493 13.0238 12.522 12.9619C12.3949 12.9 12.2832 12.8103 12.1958 12.6992C12.1083 12.5879 12.0471 12.4577 12.0171 12.3193C11.9871 12.1811 11.9896 12.0379 12.0229 11.9004L12.4438 10.167L12.5815 9.59863L12.0894 9.91504C11.7805 10.1138 11.4259 10.2269 11.061 10.2461C10.947 9.92652 10.7584 9.63876 10.5093 9.4082C10.6459 9.00144 10.717 8.57534 10.7173 8.14551C10.7173 7.43051 10.5281 6.75964 10.1978 6.17969C10.4509 6.08274 10.7211 6.03545 10.9937 6.04102L11.2856 6.04688L11.2271 5.75977C11.1704 5.48208 11.1704 5.19565 11.2271 4.91797C11.3387 4.37094 11.6636 3.89088 12.1294 3.58301Z" stroke="white" stroke-opacity="0.72" stroke-width="0.46771"/>
</svg>
