<svg width="24" height="24" viewBox="0 0 24 24" fill="none" xmlns="http://www.w3.org/2000/svg">
<path d="M9.375 2.99997C8.87772 2.99997 8.4008 3.19751 8.04917 3.54915C7.69754 3.90078 7.5 4.37769 7.5 4.87497C7.5 5.37225 7.69754 5.84916 8.04917 6.2008C8.4008 6.55243 8.87772 6.74997 9.375 6.74997H11.25V11.25H3.375C2.87772 11.25 2.40081 11.0524 2.04917 10.7008C1.69754 10.3492 1.5 9.87225 1.5 9.37497V8.62497C1.5 7.58897 2.34 6.74997 3.375 6.74997H6.568C6.08404 6.02767 5.89751 5.14646 6.04727 4.29001C6.19703 3.43356 6.67154 2.66794 7.37189 2.15273C8.07225 1.63752 8.94442 1.41247 9.80662 1.52448C10.6688 1.63649 11.4545 2.07692 12 2.75397C12.5449 2.07493 13.3312 1.63275 14.1944 1.5198C15.0577 1.40686 15.9313 1.6319 16.6325 2.1479C17.3338 2.6639 17.8085 3.43094 17.9575 4.28874C18.1065 5.14654 17.9182 6.02873 17.432 6.75097H21.375C21.6212 6.75084 21.865 6.79921 22.0925 6.89333C22.3199 6.98745 22.5266 7.12547 22.7008 7.2995C22.8749 7.47353 23.013 7.68016 23.1073 7.90759C23.2015 8.13502 23.25 8.37879 23.25 8.62497V9.37497C23.25 10.411 22.41 11.25 21.375 11.25H12.75V6.74997H14.625C14.9958 6.74997 15.3584 6.64 15.6667 6.43398C15.975 6.22795 16.2154 5.93511 16.3573 5.5925C16.4992 5.24989 16.5363 4.87289 16.464 4.50918C16.3916 4.14546 16.213 3.81137 15.9508 3.54915C15.6886 3.28692 15.3545 3.10835 14.9908 3.036C14.6271 2.96365 14.2501 3.00078 13.9075 3.1427C13.5649 3.28461 13.272 3.52493 13.066 3.83328C12.86 4.14162 12.75 4.50413 12.75 4.87497V6.74997H11.25V4.87497C11.25 3.83897 10.41 2.99997 9.375 2.99997ZM11.25 12.75H3V19.5C3 20.0967 3.23705 20.669 3.65901 21.091C4.08097 21.5129 4.65326 21.75 5.25 21.75H11.25V12.75ZM12.75 12.75V21.75H19.5C20.0967 21.75 20.669 21.5129 21.091 21.091C21.5129 20.669 21.75 20.0967 21.75 19.5V12.75H12.75Z" fill="#3E495F"/>
</svg>
