<svg width="20" height="20" viewBox="0 0 20 20" fill="none" xmlns="http://www.w3.org/2000/svg">
<path d="M15.8333 1.66669H4.16667C3.72464 1.66669 3.30072 1.84228 2.98816 2.15484C2.67559 2.4674 2.5 2.89133 2.5 3.33335V15C2.5 15.9167 3.25 16.6667 4.16667 16.6667H7.5L9.40833 18.575C9.73333 18.9 10.2583 18.9 10.5833 18.575L12.5 16.6667H15.8333C16.75 16.6667 17.5 15.9167 17.5 15V3.33335C17.5 2.41669 16.75 1.66669 15.8333 1.66669ZM10.8333 15H9.16667V13.3334H10.8333V15ZM12.5583 8.54169L11.8083 9.30835C11.325 9.80002 10.9833 10.225 10.875 11.025C10.825 11.3834 10.5333 11.6584 10.1667 11.6584H9.90833C9.80588 11.6582 9.70466 11.636 9.6115 11.5934C9.51833 11.5508 9.43539 11.4887 9.36826 11.4113C9.30113 11.3339 9.25138 11.243 9.22235 11.1447C9.19333 11.0465 9.1857 10.9431 9.2 10.8417C9.29167 10.0834 9.64167 9.40835 10.15 8.89169L11.1833 7.84169C11.4833 7.54169 11.6667 7.12502 11.6667 6.66669C11.6667 5.75002 10.9167 5.00002 10 5.00002C9.275 5.00002 8.65 5.47502 8.425 6.12502C8.31667 6.43335 8.05833 6.65835 7.73333 6.65835H7.48333C7 6.65835 6.66667 6.19169 6.8 5.72502C7.02709 4.95636 7.52342 4.29519 8.19813 3.86254C8.87284 3.4299 9.68079 3.25471 10.4741 3.36905C11.2674 3.4834 11.993 3.87962 12.5181 4.48519C13.0431 5.09076 13.3326 5.86518 13.3333 6.66669C13.3333 7.40002 13.0333 8.06669 12.5583 8.54169Z" fill="#3E495F"/>
</svg>
