<svg width="20" height="20" viewBox="0 0 20 20" fill="none" xmlns="http://www.w3.org/2000/svg">
<path d="M9.1665 8.33335H10.8332C12.0115 8.33335 12.6007 8.33335 12.9665 8.70002C13.3332 9.06585 13.3332 9.65502 13.3332 10.8334V15.8334C13.3332 14.655 13.3332 14.0659 13.6998 13.7C14.0648 13.3334 14.654 13.3334 15.8332 13.3334C17.0123 13.3334 17.6007 13.3334 17.9665 13.7C18.3332 14.0659 18.3332 14.655 18.3332 15.8334V18.3334H1.6665C1.6665 17.155 1.6665 16.5659 2.03317 16.2C2.39817 15.8334 2.98734 15.8334 4.1665 15.8334C5.34567 15.8334 5.934 15.8334 6.29984 16.2C6.6665 16.565 6.6665 17.1542 6.6665 18.3334V10.8334C6.6665 9.65502 6.6665 9.06585 7.03317 8.70002C7.39817 8.33335 7.98734 8.33335 9.1665 8.33335ZM9.28817 2.51919C9.60484 1.95002 9.76317 1.66669 9.99984 1.66669C10.2365 1.66669 10.3948 1.95002 10.7115 2.51919L10.7932 2.66585C10.8832 2.82752 10.9282 2.90752 10.9982 2.96085C11.069 3.01419 11.1565 3.03419 11.3315 3.07335L11.4898 3.11002C12.1048 3.24919 12.4123 3.31835 12.4857 3.55335C12.559 3.78835 12.349 4.03419 11.9298 4.52419L11.8215 4.65085C11.7023 4.79002 11.6423 4.85919 11.6157 4.94585C11.589 5.03252 11.5982 5.12502 11.6157 5.31085L11.6323 5.48002C11.6957 6.13419 11.7273 6.46169 11.5365 6.60669C11.3448 6.75252 11.0565 6.61919 10.4807 6.35419L10.3323 6.28585C10.1682 6.21085 10.0865 6.17252 9.99984 6.17252C9.91317 6.17252 9.8315 6.21085 9.66734 6.28585L9.519 6.35419C8.94317 6.61919 8.65484 6.75252 8.46317 6.60669C8.2715 6.46169 8.304 6.13419 8.36734 5.48002L8.384 5.31085C8.4015 5.12502 8.41067 5.03252 8.384 4.94585C8.35734 4.85919 8.29734 4.79002 8.17817 4.65085L8.06984 4.52419C7.65067 4.03419 7.44067 3.78919 7.514 3.55335C7.58734 3.31835 7.89484 3.24919 8.50984 3.11002L8.66817 3.07335C8.84317 3.03419 8.93067 3.01502 9.0015 2.96085C9.0715 2.90752 9.1165 2.82752 9.2065 2.66585L9.28817 2.51919Z" fill="#3E495F"/>
</svg>
